<svg width="112" height="112" viewBox="0 0 112 112" shape-rendering="crispEdges" xmlns="http://www.w3.org/2000/svg">
  <rect width="112" height="112" fill="#ffffff"/>
  <rect x="34" y="20" width="11" height="1" fill="#90b462"/>
  <rect x="49" y="20" width="14" height="1" fill="#90b462"/>
  <rect x="67" y="20" width="11" height="1" fill="#90b462"/>
  <rect x="34" y="21" width="11" height="1" fill="#90b462"/>
  <rect x="49" y="21" width="14" height="1" fill="#90b462"/>
  <rect x="67" y="21" width="11" height="1" fill="#90b462"/>
  <rect x="31" y="22" width="12" height="1" fill="#90b462"/>
  <rect x="43" y="22" width="4" height="1" fill="#4a6f44"/>
  <rect x="47" y="22" width="18" height="1" fill="#90b462"/>
  <rect x="65" y="22" width="4" height="1" fill="#4a6f44"/>
  <rect x="69" y="22" width="12" height="1" fill="#90b462"/>
  <rect x="31" y="23" width="12" height="1" fill="#90b462"/>
  <rect x="43" y="23" width="4" height="1" fill="#4a6f44"/>
  <rect x="47" y="23" width="18" height="1" fill="#90b462"/>
  <rect x="65" y="23" width="4" height="1" fill="#4a6f44"/>
  <rect x="69" y="23" width="12" height="1" fill="#90b462"/>
  <rect x="31" y="24" width="12" height="1" fill="#90b462"/>
  <rect x="43" y="24" width="4" height="1" fill="#4a6f44"/>
  <rect x="47" y="24" width="18" height="1" fill="#90b462"/>
  <rect x="65" y="24" width="4" height="1" fill="#4a6f44"/>
  <rect x="69" y="24" width="12" height="1" fill="#90b462"/>
  <rect x="29" y="25" width="5" height="1" fill="#90b462"/>
  <rect x="34" y="25" width="11" height="1" fill="#4a6f44"/>
  <rect x="45" y="25" width="22" height="1" fill="#90b462"/>
  <rect x="67" y="25" width="8" height="1" fill="#4a6f44"/>
  <rect x="75" y="25" width="2" height="1" fill="#638d58"/>
  <rect x="77" y="25" width="1" height="1" fill="#4a6f44"/>
  <rect x="78" y="25" width="5" height="1" fill="#90b462"/>
  <rect x="29" y="26" width="5" height="1" fill="#90b462"/>
  <rect x="34" y="26" width="11" height="1" fill="#4a6f44"/>
  <rect x="45" y="26" width="22" height="1" fill="#90b462"/>
  <rect x="67" y="26" width="11" height="1" fill="#4a6f44"/>
  <rect x="78" y="26" width="5" height="1" fill="#90b462"/>
  <rect x="27" y="27" width="4" height="1" fill="#90b462"/>
  <rect x="31" y="27" width="9" height="1" fill="#638d58"/>
  <rect x="40" y="27" width="3" height="1" fill="#4a6f44"/>
  <rect x="43" y="27" width="26" height="1" fill="#90b462"/>
  <rect x="69" y="27" width="3" height="1" fill="#4a6f44"/>
  <rect x="72" y="27" width="9" height="1" fill="#638d58"/>
  <rect x="81" y="27" width="4" height="1" fill="#90b462"/>
  <rect x="27" y="28" width="4" height="1" fill="#90b462"/>
  <rect x="31" y="28" width="9" height="1" fill="#638d58"/>
  <rect x="40" y="28" width="3" height="1" fill="#4a6f44"/>
  <rect x="43" y="28" width="26" height="1" fill="#90b462"/>
  <rect x="69" y="28" width="3" height="1" fill="#4a6f44"/>
  <rect x="72" y="28" width="9" height="1" fill="#638d58"/>
  <rect x="81" y="28" width="4" height="1" fill="#90b462"/>
  <rect x="27" y="29" width="2" height="1" fill="#90b462"/>
  <rect x="29" y="29" width="11" height="1" fill="#638d58"/>
  <rect x="40" y="29" width="3" height="1" fill="#4a6f44"/>
  <rect x="43" y="29" width="26" height="1" fill="#90b462"/>
  <rect x="69" y="29" width="3" height="1" fill="#4a6f44"/>
  <rect x="72" y="29" width="11" height="1" fill="#638d58"/>
  <rect x="83" y="29" width="2" height="1" fill="#90b462"/>
  <rect x="27" y="30" width="2" height="1" fill="#90b462"/>
  <rect x="29" y="30" width="11" height="1" fill="#638d58"/>
  <rect x="40" y="30" width="3" height="1" fill="#4a6f44"/>
  <rect x="43" y="30" width="26" height="1" fill="#90b462"/>
  <rect x="69" y="30" width="3" height="1" fill="#4a6f44"/>
  <rect x="72" y="30" width="11" height="1" fill="#638d58"/>
  <rect x="83" y="30" width="2" height="1" fill="#90b462"/>
  <rect x="27" y="31" width="2" height="1" fill="#90b462"/>
  <rect x="29" y="31" width="11" height="1" fill="#638d58"/>
  <rect x="40" y="31" width="3" height="1" fill="#4a6f44"/>
  <rect x="43" y="31" width="26" height="1" fill="#90b462"/>
  <rect x="69" y="31" width="3" height="1" fill="#4a6f44"/>
  <rect x="72" y="31" width="11" height="1" fill="#638d58"/>
  <rect x="83" y="31" width="2" height="1" fill="#90b462"/>
  <rect x="27" y="32" width="2" height="1" fill="#90b462"/>
  <rect x="29" y="32" width="11" height="1" fill="#638d58"/>
  <rect x="40" y="32" width="3" height="1" fill="#4a6f44"/>
  <rect x="43" y="32" width="26" height="1" fill="#90b462"/>
  <rect x="69" y="32" width="3" height="1" fill="#4a6f44"/>
  <rect x="72" y="32" width="11" height="1" fill="#638d58"/>
  <rect x="83" y="32" width="2" height="1" fill="#90b462"/>
  <rect x="27" y="33" width="2" height="1" fill="#90b462"/>
  <rect x="29" y="33" width="11" height="1" fill="#638d58"/>
  <rect x="40" y="33" width="3" height="1" fill="#4a6f44"/>
  <rect x="43" y="33" width="26" height="1" fill="#90b462"/>
  <rect x="69" y="33" width="3" height="1" fill="#4a6f44"/>
  <rect x="72" y="33" width="11" height="1" fill="#638d58"/>
  <rect x="83" y="33" width="2" height="1" fill="#90b462"/>
  <rect x="27" y="34" width="2" height="1" fill="#90b462"/>
  <rect x="29" y="34" width="11" height="1" fill="#638d58"/>
  <rect x="40" y="34" width="3" height="1" fill="#4a6f44"/>
  <rect x="43" y="34" width="2" height="1" fill="#90b462"/>
  <rect x="45" y="34" width="4" height="1" fill="#4a6f44"/>
  <rect x="49" y="34" width="14" height="1" fill="#90b462"/>
  <rect x="63" y="34" width="4" height="1" fill="#4a6f44"/>
  <rect x="67" y="34" width="2" height="1" fill="#90b462"/>
  <rect x="69" y="34" width="3" height="1" fill="#4a6f44"/>
  <rect x="72" y="34" width="11" height="1" fill="#638d58"/>
  <rect x="83" y="34" width="2" height="1" fill="#90b462"/>
  <rect x="27" y="35" width="2" height="1" fill="#90b462"/>
  <rect x="29" y="35" width="11" height="1" fill="#638d58"/>
  <rect x="40" y="35" width="3" height="1" fill="#4a6f44"/>
  <rect x="43" y="35" width="2" height="1" fill="#90b462"/>
  <rect x="45" y="35" width="4" height="1" fill="#4a6f44"/>
  <rect x="49" y="35" width="14" height="1" fill="#90b462"/>
  <rect x="63" y="35" width="4" height="1" fill="#4a6f44"/>
  <rect x="67" y="35" width="2" height="1" fill="#90b462"/>
  <rect x="69" y="35" width="3" height="1" fill="#4a6f44"/>
  <rect x="72" y="35" width="11" height="1" fill="#638d58"/>
  <rect x="83" y="35" width="2" height="1" fill="#90b462"/>
  <rect x="27" y="36" width="2" height="1" fill="#90b462"/>
  <rect x="29" y="36" width="11" height="1" fill="#638d58"/>
  <rect x="40" y="36" width="3" height="1" fill="#4a6f44"/>
  <rect x="43" y="36" width="4" height="1" fill="#90b462"/>
  <rect x="47" y="36" width="2" height="1" fill="#4a6f44"/>
  <rect x="49" y="36" width="14" height="1" fill="#90b462"/>
  <rect x="63" y="36" width="2" height="1" fill="#4a6f44"/>
  <rect x="65" y="36" width="4" height="1" fill="#90b462"/>
  <rect x="69" y="36" width="3" height="1" fill="#4a6f44"/>
  <rect x="72" y="36" width="11" height="1" fill="#638d58"/>
  <rect x="83" y="36" width="2" height="1" fill="#90b462"/>
  <rect x="27" y="37" width="2" height="1" fill="#90b462"/>
  <rect x="29" y="37" width="11" height="1" fill="#638d58"/>
  <rect x="40" y="37" width="3" height="1" fill="#4a6f44"/>
  <rect x="43" y="37" width="4" height="1" fill="#90b462"/>
  <rect x="47" y="37" width="2" height="1" fill="#4a6f44"/>
  <rect x="49" y="37" width="14" height="1" fill="#90b462"/>
  <rect x="63" y="37" width="2" height="1" fill="#4a6f44"/>
  <rect x="65" y="37" width="4" height="1" fill="#90b462"/>
  <rect x="69" y="37" width="3" height="1" fill="#4a6f44"/>
  <rect x="72" y="37" width="11" height="1" fill="#638d58"/>
  <rect x="83" y="37" width="2" height="1" fill="#90b462"/>
  <rect x="29" y="38" width="2" height="1" fill="#90b462"/>
  <rect x="31" y="38" width="9" height="1" fill="#638d58"/>
  <rect x="40" y="38" width="3" height="1" fill="#4a6f44"/>
  <rect x="43" y="38" width="26" height="1" fill="#90b462"/>
  <rect x="69" y="38" width="3" height="1" fill="#4a6f44"/>
  <rect x="72" y="38" width="9" height="1" fill="#638d58"/>
  <rect x="81" y="38" width="2" height="1" fill="#90b462"/>
  <rect x="29" y="39" width="2" height="1" fill="#90b462"/>
  <rect x="31" y="39" width="9" height="1" fill="#638d58"/>
  <rect x="40" y="39" width="3" height="1" fill="#4a6f44"/>
  <rect x="43" y="39" width="26" height="1" fill="#90b462"/>
  <rect x="69" y="39" width="3" height="1" fill="#4a6f44"/>
  <rect x="72" y="39" width="9" height="1" fill="#638d58"/>
  <rect x="81" y="39" width="2" height="1" fill="#90b462"/>
  <rect x="31" y="40" width="3" height="1" fill="#90b462"/>
  <rect x="34" y="40" width="6" height="1" fill="#638d58"/>
  <rect x="40" y="40" width="3" height="1" fill="#4a6f44"/>
  <rect x="43" y="40" width="26" height="1" fill="#90b462"/>
  <rect x="69" y="40" width="3" height="1" fill="#4a6f44"/>
  <rect x="72" y="40" width="6" height="1" fill="#638d58"/>
  <rect x="78" y="40" width="3" height="1" fill="#90b462"/>
  <rect x="31" y="41" width="3" height="1" fill="#90b462"/>
  <rect x="34" y="41" width="6" height="1" fill="#638d58"/>
  <rect x="40" y="41" width="3" height="1" fill="#4a6f44"/>
  <rect x="43" y="41" width="26" height="1" fill="#90b462"/>
  <rect x="69" y="41" width="3" height="1" fill="#4a6f44"/>
  <rect x="72" y="41" width="6" height="1" fill="#638d58"/>
  <rect x="78" y="41" width="3" height="1" fill="#90b462"/>
  <rect x="31" y="42" width="3" height="1" fill="#aabd9f"/>
  <rect x="34" y="42" width="6" height="1" fill="#638d58"/>
  <rect x="40" y="42" width="3" height="1" fill="#4a6f44"/>
  <rect x="43" y="42" width="2" height="1" fill="#638d58"/>
  <rect x="45" y="42" width="20" height="1" fill="#90b462"/>
  <rect x="65" y="42" width="1" height="1" fill="#638d58"/>
  <rect x="66" y="42" width="1" height="1" fill="#90b462"/>
  <rect x="67" y="42" width="2" height="1" fill="#638d58"/>
  <rect x="69" y="42" width="3" height="1" fill="#4a6f44"/>
  <rect x="72" y="42" width="6" height="1" fill="#638d58"/>
  <rect x="78" y="42" width="2" height="1" fill="#aabd9f"/>
  <rect x="80" y="42" width="1" height="1" fill="#90b462"/>
  <rect x="34" y="43" width="2" height="1" fill="#90b462"/>
  <rect x="36" y="43" width="4" height="1" fill="#638d58"/>
  <rect x="40" y="43" width="5" height="1" fill="#4a6f44"/>
  <rect x="45" y="43" width="2" height="1" fill="#638d58"/>
  <rect x="47" y="43" width="18" height="1" fill="#90b462"/>
  <rect x="65" y="43" width="2" height="1" fill="#638d58"/>
  <rect x="67" y="43" width="5" height="1" fill="#4a6f44"/>
  <rect x="72" y="43" width="4" height="1" fill="#638d58"/>
  <rect x="76" y="43" width="2" height="1" fill="#90b462"/>
  <rect x="34" y="44" width="2" height="1" fill="#90b462"/>
  <rect x="36" y="44" width="4" height="1" fill="#638d58"/>
  <rect x="40" y="44" width="5" height="1" fill="#4a6f44"/>
  <rect x="45" y="44" width="2" height="1" fill="#638d58"/>
  <rect x="47" y="44" width="18" height="1" fill="#90b462"/>
  <rect x="65" y="44" width="2" height="1" fill="#638d58"/>
  <rect x="67" y="44" width="5" height="1" fill="#4a6f44"/>
  <rect x="72" y="44" width="4" height="1" fill="#638d58"/>
  <rect x="76" y="44" width="2" height="1" fill="#90b462"/>
  <rect x="36" y="45" width="2" height="1" fill="#4a6f44"/>
  <rect x="38" y="45" width="2" height="1" fill="#638d58"/>
  <rect x="40" y="45" width="3" height="1" fill="#4a6f44"/>
  <rect x="45" y="45" width="2" height="1" fill="#638d58"/>
  <rect x="49" y="45" width="11" height="1" fill="#90b462"/>
  <rect x="60" y="45" width="3" height="1" fill="#638d58"/>
  <rect x="65" y="45" width="2" height="1" fill="#638d58"/>
  <rect x="69" y="45" width="3" height="1" fill="#4a6f44"/>
  <rect x="72" y="45" width="2" height="1" fill="#638d58"/>
  <rect x="74" y="45" width="2" height="1" fill="#4a6f44"/>
  <rect x="36" y="46" width="2" height="1" fill="#4a6f44"/>
  <rect x="38" y="46" width="2" height="1" fill="#638d58"/>
  <rect x="40" y="46" width="3" height="1" fill="#4a6f44"/>
  <rect x="45" y="46" width="2" height="1" fill="#638d58"/>
  <rect x="49" y="46" width="11" height="1" fill="#90b462"/>
  <rect x="60" y="46" width="3" height="1" fill="#638d58"/>
  <rect x="65" y="46" width="2" height="1" fill="#638d58"/>
  <rect x="69" y="46" width="3" height="1" fill="#4a6f44"/>
  <rect x="72" y="46" width="2" height="1" fill="#638d58"/>
  <rect x="74" y="46" width="2" height="1" fill="#4a6f44"/>
  <rect x="47" y="47" width="2" height="1" fill="#90b462"/>
  <rect x="49" y="47" width="3" height="1" fill="#638d58"/>
  <rect x="52" y="47" width="2" height="1" fill="#90b462"/>
  <rect x="54" y="47" width="6" height="1" fill="#638d58"/>
  <rect x="60" y="47" width="3" height="1" fill="#4a6f44"/>
  <rect x="63" y="47" width="2" height="1" fill="#90b462"/>
  <rect x="47" y="48" width="2" height="1" fill="#90b462"/>
  <rect x="49" y="48" width="1" height="1" fill="#4a6f44"/>
  <rect x="50" y="48" width="2" height="1" fill="#638d58"/>
  <rect x="52" y="48" width="2" height="1" fill="#90b462"/>
  <rect x="54" y="48" width="6" height="1" fill="#638d58"/>
  <rect x="60" y="48" width="3" height="1" fill="#4a6f44"/>
  <rect x="63" y="48" width="2" height="1" fill="#90b462"/>
  <rect x="45" y="49" width="4" height="1" fill="#90b462"/>
  <rect x="52" y="49" width="6" height="1" fill="#90b462"/>
  <rect x="58" y="49" width="2" height="1" fill="#638d58"/>
  <rect x="63" y="49" width="4" height="1" fill="#90b462"/>
  <rect x="45" y="50" width="4" height="1" fill="#90b462"/>
  <rect x="52" y="50" width="6" height="1" fill="#90b462"/>
  <rect x="58" y="50" width="2" height="1" fill="#638d58"/>
  <rect x="63" y="50" width="4" height="1" fill="#90b462"/>
  <rect x="43" y="51" width="2" height="1" fill="#aabd9f"/>
  <rect x="45" y="51" width="2" height="1" fill="#90b462"/>
  <rect x="47" y="51" width="2" height="1" fill="#aabd9f"/>
  <rect x="52" y="51" width="6" height="1" fill="#90b462"/>
  <rect x="58" y="51" width="2" height="1" fill="#638d58"/>
  <rect x="63" y="51" width="2" height="1" fill="#aabd9f"/>
  <rect x="65" y="51" width="2" height="1" fill="#90b462"/>
  <rect x="67" y="51" width="2" height="1" fill="#aabd9f"/>
  <rect x="43" y="52" width="4" height="1" fill="#90b462"/>
  <rect x="52" y="52" width="2" height="1" fill="#90b462"/>
  <rect x="54" y="52" width="6" height="1" fill="#638d58"/>
  <rect x="65" y="52" width="4" height="1" fill="#90b462"/>
  <rect x="43" y="53" width="4" height="1" fill="#90b462"/>
  <rect x="52" y="53" width="2" height="1" fill="#90b462"/>
  <rect x="54" y="53" width="6" height="1" fill="#638d58"/>
  <rect x="65" y="53" width="4" height="1" fill="#90b462"/>
  <rect x="43" y="54" width="2" height="1" fill="#90b462"/>
  <rect x="52" y="54" width="6" height="1" fill="#90b462"/>
  <rect x="58" y="54" width="2" height="1" fill="#638d58"/>
  <rect x="67" y="54" width="2" height="1" fill="#90b462"/>
  <rect x="43" y="55" width="2" height="1" fill="#90b462"/>
  <rect x="52" y="55" width="6" height="1" fill="#90b462"/>
  <rect x="58" y="55" width="2" height="1" fill="#638d58"/>
  <rect x="67" y="55" width="2" height="1" fill="#90b462"/>
  <rect x="52" y="56" width="2" height="1" fill="#90b462"/>
  <rect x="54" y="56" width="6" height="1" fill="#638d58"/>
  <rect x="52" y="57" width="2" height="1" fill="#90b462"/>
  <rect x="54" y="57" width="6" height="1" fill="#638d58"/>
  <rect x="52" y="58" width="4" height="1" fill="#90b462"/>
  <rect x="56" y="58" width="4" height="1" fill="#638d58"/>
  <rect x="52" y="59" width="4" height="1" fill="#90b462"/>
  <rect x="56" y="59" width="4" height="1" fill="#638d58"/>
  <rect x="43" y="60" width="2" height="1" fill="#4a6f44"/>
  <rect x="45" y="60" width="2" height="1" fill="#aabd9f"/>
  <rect x="52" y="60" width="2" height="1" fill="#90b462"/>
  <rect x="54" y="60" width="4" height="1" fill="#638d58"/>
  <rect x="58" y="60" width="2" height="1" fill="#4a6f44"/>
  <rect x="43" y="61" width="2" height="1" fill="#4a6f44"/>
  <rect x="45" y="61" width="2" height="1" fill="#90b462"/>
  <rect x="52" y="61" width="2" height="1" fill="#90b462"/>
  <rect x="54" y="61" width="4" height="1" fill="#638d58"/>
  <rect x="58" y="61" width="2" height="1" fill="#4a6f44"/>
  <rect x="43" y="62" width="2" height="1" fill="#4a6f44"/>
  <rect x="45" y="62" width="2" height="1" fill="#90b462"/>
  <rect x="51" y="62" width="1" height="1" fill="#aabd9f"/>
  <rect x="52" y="62" width="2" height="1" fill="#90b462"/>
  <rect x="54" y="62" width="4" height="1" fill="#638d58"/>
  <rect x="58" y="62" width="2" height="1" fill="#4a6f44"/>
  <rect x="43" y="63" width="2" height="1" fill="#4a6f44"/>
  <rect x="45" y="63" width="2" height="1" fill="#638d58"/>
  <rect x="47" y="63" width="5" height="1" fill="#90b462"/>
  <rect x="52" y="63" width="6" height="1" fill="#638d58"/>
  <rect x="58" y="63" width="2" height="1" fill="#4a6f44"/>
  <rect x="43" y="64" width="2" height="1" fill="#4a6f44"/>
  <rect x="45" y="64" width="2" height="1" fill="#638d58"/>
  <rect x="47" y="64" width="5" height="1" fill="#90b462"/>
  <rect x="52" y="64" width="6" height="1" fill="#638d58"/>
  <rect x="58" y="64" width="2" height="1" fill="#4a6f44"/>
  <rect x="43" y="65" width="2" height="1" fill="#4a6f44"/>
  <rect x="45" y="65" width="11" height="1" fill="#638d58"/>
  <rect x="56" y="65" width="2" height="1" fill="#4a6f44"/>
  <rect x="43" y="66" width="2" height="1" fill="#4a6f44"/>
  <rect x="45" y="66" width="11" height="1" fill="#638d58"/>
  <rect x="56" y="66" width="2" height="1" fill="#4a6f44"/>
  <rect x="45" y="67" width="11" height="1" fill="#4a6f44"/>
  <rect x="45" y="68" width="11" height="1" fill="#4a6f44"/>
  <rect x="22" y="74" width="12" height="1" fill="#638d58"/>
  <rect x="36" y="74" width="11" height="1" fill="#638d58"/>
  <rect x="49" y="74" width="4" height="1" fill="#638d58"/>
  <rect x="59" y="74" width="4" height="1" fill="#638d58"/>
  <rect x="65" y="74" width="10" height="1" fill="#638d58"/>
  <rect x="80" y="74" width="8" height="1" fill="#638d58"/>
  <rect x="22" y="75" width="12" height="1" fill="#638d58"/>
  <rect x="36" y="75" width="11" height="1" fill="#638d58"/>
  <rect x="49" y="75" width="5" height="1" fill="#638d58"/>
  <rect x="58" y="75" width="5" height="1" fill="#638d58"/>
  <rect x="65" y="75" width="11" height="1" fill="#638d58"/>
  <rect x="78" y="75" width="12" height="1" fill="#638d58"/>
  <rect x="27" y="76" width="3" height="1" fill="#638d58"/>
  <rect x="36" y="76" width="3" height="1" fill="#638d58"/>
  <rect x="49" y="76" width="6" height="1" fill="#638d58"/>
  <rect x="57" y="76" width="6" height="1" fill="#638d58"/>
  <rect x="65" y="76" width="3" height="1" fill="#638d58"/>
  <rect x="73" y="76" width="3" height="1" fill="#638d58"/>
  <rect x="78" y="76" width="4" height="1" fill="#638d58"/>
  <rect x="86" y="76" width="4" height="1" fill="#638d58"/>
  <rect x="27" y="77" width="3" height="1" fill="#638d58"/>
  <rect x="36" y="77" width="3" height="1" fill="#638d58"/>
  <rect x="49" y="77" width="14" height="1" fill="#638d58"/>
  <rect x="65" y="77" width="3" height="1" fill="#638d58"/>
  <rect x="73" y="77" width="3" height="1" fill="#638d58"/>
  <rect x="78" y="77" width="4" height="1" fill="#638d58"/>
  <rect x="86" y="77" width="4" height="1" fill="#638d58"/>
  <rect x="27" y="78" width="3" height="1" fill="#638d58"/>
  <rect x="36" y="78" width="9" height="1" fill="#638d58"/>
  <rect x="49" y="78" width="3" height="1" fill="#638d58"/>
  <rect x="52" y="78" width="1" height="1" fill="#90b462"/>
  <rect x="54" y="78" width="4" height="1" fill="#638d58"/>
  <rect x="59" y="78" width="4" height="1" fill="#638d58"/>
  <rect x="65" y="78" width="10" height="1" fill="#638d58"/>
  <rect x="78" y="78" width="4" height="1" fill="#638d58"/>
  <rect x="86" y="78" width="4" height="1" fill="#638d58"/>
  <rect x="27" y="79" width="3" height="1" fill="#638d58"/>
  <rect x="36" y="79" width="9" height="1" fill="#638d58"/>
  <rect x="49" y="79" width="3" height="1" fill="#638d58"/>
  <rect x="52" y="79" width="1" height="1" fill="#90b462"/>
  <rect x="54" y="79" width="4" height="1" fill="#638d58"/>
  <rect x="59" y="79" width="4" height="1" fill="#638d58"/>
  <rect x="65" y="79" width="10" height="1" fill="#638d58"/>
  <rect x="78" y="79" width="4" height="1" fill="#638d58"/>
  <rect x="86" y="79" width="4" height="1" fill="#638d58"/>
  <rect x="27" y="80" width="3" height="1" fill="#638d58"/>
  <rect x="36" y="80" width="9" height="1" fill="#638d58"/>
  <rect x="49" y="80" width="4" height="1" fill="#638d58"/>
  <rect x="54" y="80" width="4" height="1" fill="#638d58"/>
  <rect x="59" y="80" width="4" height="1" fill="#638d58"/>
  <rect x="65" y="80" width="3" height="1" fill="#638d58"/>
  <rect x="68" y="80" width="1" height="1" fill="#4a6f44"/>
  <rect x="69" y="80" width="7" height="1" fill="#638d58"/>
  <rect x="78" y="80" width="4" height="1" fill="#638d58"/>
  <rect x="86" y="80" width="4" height="1" fill="#638d58"/>
  <rect x="27" y="81" width="3" height="1" fill="#638d58"/>
  <rect x="36" y="81" width="3" height="1" fill="#638d58"/>
  <rect x="49" y="81" width="4" height="1" fill="#638d58"/>
  <rect x="55" y="81" width="2" height="1" fill="#638d58"/>
  <rect x="59" y="81" width="4" height="1" fill="#638d58"/>
  <rect x="65" y="81" width="3" height="1" fill="#638d58"/>
  <rect x="73" y="81" width="3" height="1" fill="#638d58"/>
  <rect x="78" y="81" width="4" height="1" fill="#638d58"/>
  <rect x="86" y="81" width="4" height="1" fill="#638d58"/>
  <rect x="27" y="82" width="3" height="1" fill="#638d58"/>
  <rect x="36" y="82" width="3" height="1" fill="#638d58"/>
  <rect x="49" y="82" width="4" height="1" fill="#638d58"/>
  <rect x="59" y="82" width="4" height="1" fill="#638d58"/>
  <rect x="65" y="82" width="3" height="1" fill="#638d58"/>
  <rect x="73" y="82" width="3" height="1" fill="#638d58"/>
  <rect x="78" y="82" width="4" height="1" fill="#638d58"/>
  <rect x="86" y="82" width="4" height="1" fill="#638d58"/>
  <rect x="27" y="83" width="3" height="1" fill="#638d58"/>
  <rect x="36" y="83" width="11" height="1" fill="#638d58"/>
  <rect x="49" y="83" width="4" height="1" fill="#638d58"/>
  <rect x="59" y="83" width="4" height="1" fill="#638d58"/>
  <rect x="65" y="83" width="11" height="1" fill="#638d58"/>
  <rect x="78" y="83" width="12" height="1" fill="#638d58"/>
  <rect x="27" y="84" width="3" height="1" fill="#638d58"/>
  <rect x="36" y="84" width="11" height="1" fill="#638d58"/>
  <rect x="49" y="84" width="4" height="1" fill="#638d58"/>
  <rect x="59" y="84" width="4" height="1" fill="#638d58"/>
  <rect x="65" y="84" width="10" height="1" fill="#638d58"/>
  <rect x="80" y="84" width="8" height="1" fill="#638d58"/>
  <rect x="32" y="89" width="2" height="1" fill="#aabd9f"/>
  <rect x="34" y="89" width="1" height="1" fill="#90b462"/>
  <rect x="36" y="89" width="2" height="1" fill="#aabd9f"/>
  <rect x="38" y="89" width="1" height="1" fill="#90b462"/>
  <rect x="39" y="89" width="1" height="1" fill="#638d58"/>
  <rect x="40" y="89" width="1" height="1" fill="#90b462"/>
  <rect x="41" y="89" width="3" height="1" fill="#aabd9f"/>
  <rect x="45" y="89" width="1" height="1" fill="#aabd9f"/>
  <rect x="48" y="89" width="3" height="1" fill="#90b462"/>
  <rect x="51" y="89" width="1" height="1" fill="#aabd9f"/>
  <rect x="52" y="89" width="1" height="1" fill="#90b462"/>
  <rect x="57" y="89" width="3" height="1" fill="#aabd9f"/>
  <rect x="60" y="89" width="1" height="1" fill="#638d58"/>
  <rect x="61" y="89" width="3" height="1" fill="#aabd9f"/>
  <rect x="65" y="89" width="1" height="1" fill="#aabd9f"/>
  <rect x="67" y="89" width="6" height="1" fill="#aabd9f"/>
  <rect x="74" y="89" width="2" height="1" fill="#aabd9f"/>
  <rect x="77" y="89" width="1" height="1" fill="#90b462"/>
  <rect x="78" y="89" width="2" height="1" fill="#aabd9f"/>
  <rect x="31" y="90" width="1" height="1" fill="#4a6f44"/>
  <rect x="34" y="90" width="1" height="1" fill="#4a6f44"/>
  <rect x="36" y="90" width="1" height="1" fill="#4a6f44"/>
  <rect x="40" y="90" width="1" height="1" fill="#4a6f44"/>
  <rect x="41" y="90" width="1" height="1" fill="#aabd9f"/>
  <rect x="45" y="90" width="1" height="1" fill="#4a6f44"/>
  <rect x="47" y="90" width="1" height="1" fill="#aabd9f"/>
  <rect x="48" y="90" width="1" height="1" fill="#4a6f44"/>
  <rect x="51" y="90" width="1" height="1" fill="#4a6f44"/>
  <rect x="56" y="90" width="1" height="1" fill="#4a6f44"/>
  <rect x="62" y="90" width="1" height="1" fill="#4a6f44"/>
  <rect x="65" y="90" width="1" height="1" fill="#4a6f44"/>
  <rect x="67" y="90" width="1" height="1" fill="#aabd9f"/>
  <rect x="68" y="90" width="2" height="1" fill="#4a6f44"/>
  <rect x="70" y="90" width="1" height="1" fill="#aabd9f"/>
  <rect x="72" y="90" width="1" height="1" fill="#4a6f44"/>
  <rect x="74" y="90" width="1" height="1" fill="#4a6f44"/>
  <rect x="75" y="90" width="1" height="1" fill="#638d58"/>
  <rect x="77" y="90" width="1" height="1" fill="#4a6f44"/>
  <rect x="80" y="90" width="1" height="1" fill="#4a6f44"/>
  <rect x="22" y="91" width="7" height="1" fill="#4a6f44"/>
  <rect x="31" y="91" width="4" height="1" fill="#4a6f44"/>
  <rect x="36" y="91" width="1" height="1" fill="#4a6f44"/>
  <rect x="38" y="91" width="5" height="1" fill="#4a6f44"/>
  <rect x="45" y="91" width="4" height="1" fill="#4a6f44"/>
  <rect x="51" y="91" width="1" height="1" fill="#4a6f44"/>
  <rect x="56" y="91" width="3" height="1" fill="#4a6f44"/>
  <rect x="62" y="91" width="1" height="1" fill="#4a6f44"/>
  <rect x="65" y="91" width="1" height="1" fill="#4a6f44"/>
  <rect x="67" y="91" width="1" height="1" fill="#aabd9f"/>
  <rect x="68" y="91" width="2" height="1" fill="#4a6f44"/>
  <rect x="70" y="91" width="1" height="1" fill="#aabd9f"/>
  <rect x="72" y="91" width="1" height="1" fill="#4a6f44"/>
  <rect x="74" y="91" width="1" height="1" fill="#4a6f44"/>
  <rect x="75" y="91" width="1" height="1" fill="#638d58"/>
  <rect x="77" y="91" width="1" height="1" fill="#4a6f44"/>
  <rect x="80" y="91" width="1" height="1" fill="#4a6f44"/>
  <rect x="83" y="91" width="7" height="1" fill="#4a6f44"/>
  <rect x="31" y="92" width="1" height="1" fill="#4a6f44"/>
  <rect x="34" y="92" width="1" height="1" fill="#4a6f44"/>
  <rect x="36" y="92" width="1" height="1" fill="#4a6f44"/>
  <rect x="39" y="92" width="2" height="1" fill="#4a6f44"/>
  <rect x="41" y="92" width="1" height="1" fill="#aabd9f"/>
  <rect x="45" y="92" width="1" height="1" fill="#4a6f44"/>
  <rect x="47" y="92" width="2" height="1" fill="#4a6f44"/>
  <rect x="51" y="92" width="1" height="1" fill="#4a6f44"/>
  <rect x="59" y="92" width="1" height="1" fill="#4a6f44"/>
  <rect x="62" y="92" width="1" height="1" fill="#4a6f44"/>
  <rect x="65" y="92" width="1" height="1" fill="#4a6f44"/>
  <rect x="67" y="92" width="1" height="1" fill="#aabd9f"/>
  <rect x="68" y="92" width="2" height="1" fill="#4a6f44"/>
  <rect x="70" y="92" width="1" height="1" fill="#aabd9f"/>
  <rect x="72" y="92" width="1" height="1" fill="#4a6f44"/>
  <rect x="74" y="92" width="1" height="1" fill="#4a6f44"/>
  <rect x="75" y="92" width="1" height="1" fill="#638d58"/>
  <rect x="77" y="92" width="1" height="1" fill="#4a6f44"/>
  <rect x="80" y="92" width="1" height="1" fill="#4a6f44"/>
  <rect x="31" y="93" width="1" height="1" fill="#4a6f44"/>
  <rect x="34" y="93" width="1" height="1" fill="#4a6f44"/>
  <rect x="36" y="93" width="1" height="1" fill="#638d58"/>
  <rect x="37" y="93" width="2" height="1" fill="#4a6f44"/>
  <rect x="39" y="93" width="1" height="1" fill="#aabd9f"/>
  <rect x="40" y="93" width="4" height="1" fill="#4a6f44"/>
  <rect x="45" y="93" width="1" height="1" fill="#4a6f44"/>
  <rect x="47" y="93" width="1" height="1" fill="#aabd9f"/>
  <rect x="48" y="93" width="1" height="1" fill="#4a6f44"/>
  <rect x="51" y="93" width="1" height="1" fill="#4a6f44"/>
  <rect x="56" y="93" width="3" height="1" fill="#4a6f44"/>
  <rect x="59" y="93" width="1" height="1" fill="#aabd9f"/>
  <rect x="62" y="93" width="1" height="1" fill="#4a6f44"/>
  <rect x="65" y="93" width="1" height="1" fill="#638d58"/>
  <rect x="66" y="93" width="2" height="1" fill="#4a6f44"/>
  <rect x="68" y="93" width="1" height="1" fill="#aabd9f"/>
  <rect x="69" y="93" width="4" height="1" fill="#4a6f44"/>
  <rect x="74" y="93" width="2" height="1" fill="#4a6f44"/>
  <rect x="77" y="93" width="3" height="1" fill="#4a6f44"/>
  <rect x="80" y="93" width="1" height="1" fill="#aabd9f"/>
</svg>
